# xmcd CD database file generated by Grip 3.2.0
# 
# Track frame offsets:
#       162
#       12462
#       24022
#       37327
#       47990
#       61640
#       73712
#       87735
#       99597
#       112367
#       123770
#       137865
#       148527
#       162650
#       176485
#       189360
#       202085
#       212730
#       229242
#       252560
# 
# Disc length: 3563 seconds
# 
# Revision: 4
# Processed by: cddbd v1.5.1PL0 Copyright (c) Steve Scherf et al.
# Submitted via: Grip 3.2.0
# 
DISCID=330de914
DTITLE=Otis Rush - 1956-1958 Cobra Recordings
DYEAR=1958
DGENRE=Blues
TTITLE0=Double Trouble
TTITLE1=Jump Sister Bessie
TTITLE2=Checking On My Baby
TTITLE3=Sit Down
TTITLE4=Love That Woman
TTITLE5=My Baby Is A Good'un
TTITLE6=If You Were Mine
TTITLE7=All Your Love
TTITLE8=It Takes Time
TTITLE9=Violent Love
TTITLE10=I Can't Quit You Baby
TTITLE11=Little Red Rooster
TTITLE12=My Love Will Never Die
TTITLE13=Groaning The Blues
TTITLE14=Three Times A Fool
TTITLE15=She's A Good'un
TTITLE16=Keep On Loving Me Baby
TTITLE17=I Can't Quit You Baby (Alternate Take)
TTITLE18=Double Trouble (Alternate Take)
TTITLE19=She's A Good'un (Alternate Take)
EXTD=
EXTT0=
EXTT1=
EXTT2=
EXTT3=
EXTT4=
EXTT5=
EXTT6=
EXTT7=
EXTT8=
EXTT9=
EXTT10=
EXTT11=
EXTT12=
EXTT13=
EXTT14=
EXTT15=
EXTT16=
EXTT17=
EXTT18=
EXTT19=
PLAYORDER=
